<svg xmlns="http://www.w3.org/2000/svg" width="512" height="512" viewBox="0 0 512 512">
  <g fill="none" fill-rule="evenodd">
    <circle cx="256" cy="256" r="256" fill="#12355B"/>
    <circle cx="256" cy="256" r="256" fill="#CCE3DE"/>
    <g fill="#000000" transform="translate(143 103)">
      <path d="M181.87307,46.1260606 L181.87307,299.873939 L5.80445969,299.873939 L5.80445969,46.1260606 L181.87307,46.1260606 L181.87307,46.1260606 Z M188,40 L0,40 L0,306 L188,306 L188,40 L188,40 L188,40 Z"/>
      <rect width="143" height="6" x="22" y="267"/>
      <rect width="143" height="6" x="22" y="246"/>
      <rect width="143" height="6" x="22" y="227"/>
      <rect width="143" height="6" x="22" y="206"/>
      <rect width="143" height="6" x="22" y="186"/>
      <rect width="143" height="6" x="22" y="166"/>
      <rect width="143" height="6" x="22" y="146"/>
      <rect width="143" height="6" x="22" y="125"/>
      <rect width="49" height="6" x="69" y="85"/>
      <rect width="143" height="6" x="22" y="106"/>
      <polygon points="208 20 20 20 20 34.472 26.116 34.472 26.116 25.789 201.884 25.789 201.884 279.211 193.192 279.211 193.192 283.07 193.192 284.035 193.192 285 208 285"/>
      <polygon points="228 0 40 0 40 14.509 40.645 14.509 46.127 14.509 46.127 6.126 222.196 6.126 222.196 259.874 213.489 259.874 213.489 260.519 213.489 261.164 213.489 262.453 213.489 266 228 266"/>
    </g>
  </g>
</svg>
